<mxfile host="Electron" modified="2024-10-01T03:17:18.317Z" agent="Mozilla/5.0 (Windows NT 10.0; Win64; x64) AppleWebKit/537.36 (KHTML, like Gecko) draw.io/24.2.5 Chrome/120.0.6099.109 Electron/28.1.0 Safari/537.36" etag="OP965GWIMLTwopYXGESW" version="24.2.5" type="device">
  <diagram name="Page-1" id="sHfiPCbb4dcBc2PgwVyM">
    <mxGraphModel dx="1020" dy="542" grid="1" gridSize="10" guides="1" tooltips="1" connect="1" arrows="0" fold="1" page="1" pageScale="1" pageWidth="850" pageHeight="1100" math="0" shadow="0">
      <root>
        <mxCell id="0" />
        <mxCell id="1" value="Base" parent="0" visible="0" />
        <mxCell id="RPHfIfzpxBbw7_Gx0BDq-2" value="Prod" style="points=[[0,0],[0.25,0],[0.5,0],[0.75,0],[1,0],[1,0.25],[1,0.5],[1,0.75],[1,1],[0.75,1],[0.5,1],[0.25,1],[0,1],[0,0.75],[0,0.5],[0,0.25]];outlineConnect=0;gradientColor=none;html=1;whiteSpace=wrap;fontSize=12;fontStyle=0;container=1;pointerEvents=0;collapsible=0;recursiveResize=0;shape=mxgraph.aws4.group;grIcon=mxgraph.aws4.group_account;strokeColor=#CD2264;fillColor=none;verticalAlign=top;align=left;spacingLeft=30;fontColor=#CD2264;dashed=0;" parent="1" vertex="1">
          <mxGeometry x="30" y="-630" width="770" height="530" as="geometry" />
        </mxCell>
        <mxCell id="RPHfIfzpxBbw7_Gx0BDq-3" value="Shared-services vpc&lt;div&gt;&lt;br&gt;&lt;/div&gt;" style="points=[[0,0],[0.25,0],[0.5,0],[0.75,0],[1,0],[1,0.25],[1,0.5],[1,0.75],[1,1],[0.75,1],[0.5,1],[0.25,1],[0,1],[0,0.75],[0,0.5],[0,0.25]];outlineConnect=0;gradientColor=none;html=1;whiteSpace=wrap;fontSize=12;fontStyle=0;container=1;pointerEvents=0;collapsible=0;recursiveResize=0;shape=mxgraph.aws4.group;grIcon=mxgraph.aws4.group_vpc2;strokeColor=#8C4FFF;fillColor=none;verticalAlign=top;align=left;spacingLeft=30;fontColor=#AAB7B8;dashed=0;" parent="RPHfIfzpxBbw7_Gx0BDq-2" vertex="1">
          <mxGeometry x="20" y="30" width="300" height="480" as="geometry" />
        </mxCell>
        <mxCell id="RPHfIfzpxBbw7_Gx0BDq-13" value="Private subnet 2" style="points=[[0,0],[0.25,0],[0.5,0],[0.75,0],[1,0],[1,0.25],[1,0.5],[1,0.75],[1,1],[0.75,1],[0.5,1],[0.25,1],[0,1],[0,0.75],[0,0.5],[0,0.25]];outlineConnect=0;gradientColor=none;html=1;whiteSpace=wrap;fontSize=12;fontStyle=0;container=1;pointerEvents=0;collapsible=0;recursiveResize=0;shape=mxgraph.aws4.group;grIcon=mxgraph.aws4.group_security_group;grStroke=0;strokeColor=#00A4A6;fillColor=#E6F6F7;verticalAlign=top;align=left;spacingLeft=30;fontColor=#147EBA;dashed=0;" parent="RPHfIfzpxBbw7_Gx0BDq-3" vertex="1">
          <mxGeometry x="145" y="280" width="125" height="160" as="geometry" />
        </mxCell>
        <mxCell id="5Q4Nb2lLaVInWph-UhoE-74" value="Active directory Master" style="points=[[0,0],[0.25,0],[0.5,0],[0.75,0],[1,0],[1,0.25],[1,0.5],[1,0.75],[1,1],[0.75,1],[0.5,1],[0.25,1],[0,1],[0,0.75],[0,0.5],[0,0.25]];outlineConnect=0;gradientColor=none;html=1;whiteSpace=wrap;fontSize=12;fontStyle=0;container=1;pointerEvents=0;collapsible=0;recursiveResize=0;shape=mxgraph.aws4.group;grIcon=mxgraph.aws4.group_ec2_instance_contents;strokeColor=#D86613;fillColor=none;verticalAlign=top;align=left;spacingLeft=30;fontColor=#D86613;dashed=0;" vertex="1" parent="RPHfIfzpxBbw7_Gx0BDq-13">
          <mxGeometry x="15" y="40" width="90" height="50" as="geometry" />
        </mxCell>
        <mxCell id="RPHfIfzpxBbw7_Gx0BDq-14" value="Private subnet 1" style="points=[[0,0],[0.25,0],[0.5,0],[0.75,0],[1,0],[1,0.25],[1,0.5],[1,0.75],[1,1],[0.75,1],[0.5,1],[0.25,1],[0,1],[0,0.75],[0,0.5],[0,0.25]];outlineConnect=0;gradientColor=none;html=1;whiteSpace=wrap;fontSize=12;fontStyle=0;container=1;pointerEvents=0;collapsible=0;recursiveResize=0;shape=mxgraph.aws4.group;grIcon=mxgraph.aws4.group_security_group;grStroke=0;strokeColor=#00A4A6;fillColor=#E6F6F7;verticalAlign=top;align=left;spacingLeft=30;fontColor=#147EBA;dashed=0;" parent="RPHfIfzpxBbw7_Gx0BDq-3" vertex="1">
          <mxGeometry x="10" y="280" width="130" height="160" as="geometry" />
        </mxCell>
        <mxCell id="5Q4Nb2lLaVInWph-UhoE-58" value="Active directory Master" style="points=[[0,0],[0.25,0],[0.5,0],[0.75,0],[1,0],[1,0.25],[1,0.5],[1,0.75],[1,1],[0.75,1],[0.5,1],[0.25,1],[0,1],[0,0.75],[0,0.5],[0,0.25]];outlineConnect=0;gradientColor=none;html=1;whiteSpace=wrap;fontSize=12;fontStyle=0;container=1;pointerEvents=0;collapsible=0;recursiveResize=0;shape=mxgraph.aws4.group;grIcon=mxgraph.aws4.group_ec2_instance_contents;strokeColor=#D86613;fillColor=none;verticalAlign=top;align=left;spacingLeft=30;fontColor=#D86613;dashed=0;" vertex="1" parent="RPHfIfzpxBbw7_Gx0BDq-14">
          <mxGeometry x="20" y="40" width="90" height="50" as="geometry" />
        </mxCell>
        <mxCell id="RPHfIfzpxBbw7_Gx0BDq-20" value="Public subnet 1" style="points=[[0,0],[0.25,0],[0.5,0],[0.75,0],[1,0],[1,0.25],[1,0.5],[1,0.75],[1,1],[0.75,1],[0.5,1],[0.25,1],[0,1],[0,0.75],[0,0.5],[0,0.25]];outlineConnect=0;gradientColor=none;html=1;whiteSpace=wrap;fontSize=12;fontStyle=0;container=1;pointerEvents=0;collapsible=0;recursiveResize=0;shape=mxgraph.aws4.group;grIcon=mxgraph.aws4.group_security_group;grStroke=0;strokeColor=#7AA116;fillColor=#F2F6E8;verticalAlign=top;align=left;spacingLeft=30;fontColor=#248814;dashed=0;" parent="RPHfIfzpxBbw7_Gx0BDq-3" vertex="1">
          <mxGeometry x="10" y="40" width="120" height="160" as="geometry" />
        </mxCell>
        <mxCell id="5Q4Nb2lLaVInWph-UhoE-56" value="ssh bastion" style="points=[[0,0],[0.25,0],[0.5,0],[0.75,0],[1,0],[1,0.25],[1,0.5],[1,0.75],[1,1],[0.75,1],[0.5,1],[0.25,1],[0,1],[0,0.75],[0,0.5],[0,0.25]];outlineConnect=0;gradientColor=none;html=1;whiteSpace=wrap;fontSize=12;fontStyle=0;container=1;pointerEvents=0;collapsible=0;recursiveResize=0;shape=mxgraph.aws4.group;grIcon=mxgraph.aws4.group_ec2_instance_contents;strokeColor=#D86613;fillColor=none;verticalAlign=top;align=left;spacingLeft=30;fontColor=#D86613;dashed=0;" vertex="1" parent="RPHfIfzpxBbw7_Gx0BDq-20">
          <mxGeometry x="20" y="30" width="80" height="40" as="geometry" />
        </mxCell>
        <mxCell id="5Q4Nb2lLaVInWph-UhoE-57" value="rdp bastion" style="points=[[0,0],[0.25,0],[0.5,0],[0.75,0],[1,0],[1,0.25],[1,0.5],[1,0.75],[1,1],[0.75,1],[0.5,1],[0.25,1],[0,1],[0,0.75],[0,0.5],[0,0.25]];outlineConnect=0;gradientColor=none;html=1;whiteSpace=wrap;fontSize=12;fontStyle=0;container=1;pointerEvents=0;collapsible=0;recursiveResize=0;shape=mxgraph.aws4.group;grIcon=mxgraph.aws4.group_ec2_instance_contents;strokeColor=#D86613;fillColor=none;verticalAlign=top;align=left;spacingLeft=30;fontColor=#D86613;dashed=0;" vertex="1" parent="RPHfIfzpxBbw7_Gx0BDq-20">
          <mxGeometry x="20" y="90" width="80" height="40" as="geometry" />
        </mxCell>
        <mxCell id="5Q4Nb2lLaVInWph-UhoE-10" value="Public subnet 2" style="points=[[0,0],[0.25,0],[0.5,0],[0.75,0],[1,0],[1,0.25],[1,0.5],[1,0.75],[1,1],[0.75,1],[0.5,1],[0.25,1],[0,1],[0,0.75],[0,0.5],[0,0.25]];outlineConnect=0;gradientColor=none;html=1;whiteSpace=wrap;fontSize=12;fontStyle=0;container=1;pointerEvents=0;collapsible=0;recursiveResize=0;shape=mxgraph.aws4.group;grIcon=mxgraph.aws4.group_security_group;grStroke=0;strokeColor=#7AA116;fillColor=#F2F6E8;verticalAlign=top;align=left;spacingLeft=30;fontColor=#248814;dashed=0;" vertex="1" parent="RPHfIfzpxBbw7_Gx0BDq-3">
          <mxGeometry x="140" y="40" width="130" height="160" as="geometry" />
        </mxCell>
        <mxCell id="5Q4Nb2lLaVInWph-UhoE-72" value="ssh bastion" style="points=[[0,0],[0.25,0],[0.5,0],[0.75,0],[1,0],[1,0.25],[1,0.5],[1,0.75],[1,1],[0.75,1],[0.5,1],[0.25,1],[0,1],[0,0.75],[0,0.5],[0,0.25]];outlineConnect=0;gradientColor=none;html=1;whiteSpace=wrap;fontSize=12;fontStyle=0;container=1;pointerEvents=0;collapsible=0;recursiveResize=0;shape=mxgraph.aws4.group;grIcon=mxgraph.aws4.group_ec2_instance_contents;strokeColor=#D86613;fillColor=none;verticalAlign=top;align=left;spacingLeft=30;fontColor=#D86613;dashed=0;" vertex="1" parent="5Q4Nb2lLaVInWph-UhoE-10">
          <mxGeometry x="20" y="30" width="80" height="40" as="geometry" />
        </mxCell>
        <mxCell id="5Q4Nb2lLaVInWph-UhoE-73" value="rdp bastion" style="points=[[0,0],[0.25,0],[0.5,0],[0.75,0],[1,0],[1,0.25],[1,0.5],[1,0.75],[1,1],[0.75,1],[0.5,1],[0.25,1],[0,1],[0,0.75],[0,0.5],[0,0.25]];outlineConnect=0;gradientColor=none;html=1;whiteSpace=wrap;fontSize=12;fontStyle=0;container=1;pointerEvents=0;collapsible=0;recursiveResize=0;shape=mxgraph.aws4.group;grIcon=mxgraph.aws4.group_ec2_instance_contents;strokeColor=#D86613;fillColor=none;verticalAlign=top;align=left;spacingLeft=30;fontColor=#D86613;dashed=0;" vertex="1" parent="5Q4Nb2lLaVInWph-UhoE-10">
          <mxGeometry x="20" y="90" width="80" height="40" as="geometry" />
        </mxCell>
        <mxCell id="RPHfIfzpxBbw7_Gx0BDq-10" value="App-vpc" style="points=[[0,0],[0.25,0],[0.5,0],[0.75,0],[1,0],[1,0.25],[1,0.5],[1,0.75],[1,1],[0.75,1],[0.5,1],[0.25,1],[0,1],[0,0.75],[0,0.5],[0,0.25]];outlineConnect=0;gradientColor=none;html=1;whiteSpace=wrap;fontSize=12;fontStyle=0;container=1;pointerEvents=0;collapsible=0;recursiveResize=0;shape=mxgraph.aws4.group;grIcon=mxgraph.aws4.group_vpc2;strokeColor=#8C4FFF;fillColor=none;verticalAlign=top;align=left;spacingLeft=30;fontColor=#AAB7B8;dashed=0;" parent="RPHfIfzpxBbw7_Gx0BDq-2" vertex="1">
          <mxGeometry x="460" y="30" width="300" height="480" as="geometry" />
        </mxCell>
        <mxCell id="RPHfIfzpxBbw7_Gx0BDq-21" value="Private subnet" style="points=[[0,0],[0.25,0],[0.5,0],[0.75,0],[1,0],[1,0.25],[1,0.5],[1,0.75],[1,1],[0.75,1],[0.5,1],[0.25,1],[0,1],[0,0.75],[0,0.5],[0,0.25]];outlineConnect=0;gradientColor=none;html=1;whiteSpace=wrap;fontSize=12;fontStyle=0;container=1;pointerEvents=0;collapsible=0;recursiveResize=0;shape=mxgraph.aws4.group;grIcon=mxgraph.aws4.group_security_group;grStroke=0;strokeColor=#00A4A6;fillColor=#E6F6F7;verticalAlign=top;align=left;spacingLeft=30;fontColor=#147EBA;dashed=0;" parent="RPHfIfzpxBbw7_Gx0BDq-10" vertex="1">
          <mxGeometry x="10" y="270" width="130" height="170" as="geometry" />
        </mxCell>
        <mxCell id="5Q4Nb2lLaVInWph-UhoE-64" value="" style="sketch=0;points=[[0,0,0],[0.25,0,0],[0.5,0,0],[0.75,0,0],[1,0,0],[0,1,0],[0.25,1,0],[0.5,1,0],[0.75,1,0],[1,1,0],[0,0.25,0],[0,0.5,0],[0,0.75,0],[1,0.25,0],[1,0.5,0],[1,0.75,0]];outlineConnect=0;fontColor=#232F3E;fillColor=#ED7100;strokeColor=#ffffff;dashed=0;verticalLabelPosition=bottom;verticalAlign=top;align=center;html=1;fontSize=12;fontStyle=0;aspect=fixed;shape=mxgraph.aws4.resourceIcon;resIcon=mxgraph.aws4.ec2;" vertex="1" parent="RPHfIfzpxBbw7_Gx0BDq-21">
          <mxGeometry x="40" y="24" width="36" height="36" as="geometry" />
        </mxCell>
        <mxCell id="5Q4Nb2lLaVInWph-UhoE-65" value="" style="sketch=0;points=[[0,0,0],[0.25,0,0],[0.5,0,0],[0.75,0,0],[1,0,0],[0,1,0],[0.25,1,0],[0.5,1,0],[0.75,1,0],[1,1,0],[0,0.25,0],[0,0.5,0],[0,0.75,0],[1,0.25,0],[1,0.5,0],[1,0.75,0]];outlineConnect=0;fontColor=#232F3E;fillColor=#ED7100;strokeColor=#ffffff;dashed=0;verticalLabelPosition=bottom;verticalAlign=top;align=center;html=1;fontSize=12;fontStyle=0;aspect=fixed;shape=mxgraph.aws4.resourceIcon;resIcon=mxgraph.aws4.ec2;" vertex="1" parent="RPHfIfzpxBbw7_Gx0BDq-21">
          <mxGeometry x="40" y="66" width="38" height="38" as="geometry" />
        </mxCell>
        <mxCell id="5Q4Nb2lLaVInWph-UhoE-66" value="" style="image;aspect=fixed;perimeter=ellipsePerimeter;html=1;align=center;shadow=0;dashed=0;spacingTop=3;image=img/lib/active_directory/database_partition_3.svg;" vertex="1" parent="RPHfIfzpxBbw7_Gx0BDq-21">
          <mxGeometry x="34" y="120" width="50" height="37" as="geometry" />
        </mxCell>
        <mxCell id="RPHfIfzpxBbw7_Gx0BDq-22" value="Private subnet" style="points=[[0,0],[0.25,0],[0.5,0],[0.75,0],[1,0],[1,0.25],[1,0.5],[1,0.75],[1,1],[0.75,1],[0.5,1],[0.25,1],[0,1],[0,0.75],[0,0.5],[0,0.25]];outlineConnect=0;gradientColor=none;html=1;whiteSpace=wrap;fontSize=12;fontStyle=0;container=1;pointerEvents=0;collapsible=0;recursiveResize=0;shape=mxgraph.aws4.group;grIcon=mxgraph.aws4.group_security_group;grStroke=0;strokeColor=#00A4A6;fillColor=#E6F6F7;verticalAlign=top;align=left;spacingLeft=30;fontColor=#147EBA;dashed=0;" parent="RPHfIfzpxBbw7_Gx0BDq-10" vertex="1">
          <mxGeometry x="150" y="270" width="130" height="170" as="geometry" />
        </mxCell>
        <mxCell id="5Q4Nb2lLaVInWph-UhoE-69" value="" style="sketch=0;points=[[0,0,0],[0.25,0,0],[0.5,0,0],[0.75,0,0],[1,0,0],[0,1,0],[0.25,1,0],[0.5,1,0],[0.75,1,0],[1,1,0],[0,0.25,0],[0,0.5,0],[0,0.75,0],[1,0.25,0],[1,0.5,0],[1,0.75,0]];outlineConnect=0;fontColor=#232F3E;fillColor=#ED7100;strokeColor=#ffffff;dashed=0;verticalLabelPosition=bottom;verticalAlign=top;align=center;html=1;fontSize=12;fontStyle=0;aspect=fixed;shape=mxgraph.aws4.resourceIcon;resIcon=mxgraph.aws4.ec2;" vertex="1" parent="RPHfIfzpxBbw7_Gx0BDq-22">
          <mxGeometry x="40" y="30" width="36" height="36" as="geometry" />
        </mxCell>
        <mxCell id="5Q4Nb2lLaVInWph-UhoE-70" value="" style="sketch=0;points=[[0,0,0],[0.25,0,0],[0.5,0,0],[0.75,0,0],[1,0,0],[0,1,0],[0.25,1,0],[0.5,1,0],[0.75,1,0],[1,1,0],[0,0.25,0],[0,0.5,0],[0,0.75,0],[1,0.25,0],[1,0.5,0],[1,0.75,0]];outlineConnect=0;fontColor=#232F3E;fillColor=#ED7100;strokeColor=#ffffff;dashed=0;verticalLabelPosition=bottom;verticalAlign=top;align=center;html=1;fontSize=12;fontStyle=0;aspect=fixed;shape=mxgraph.aws4.resourceIcon;resIcon=mxgraph.aws4.ec2;" vertex="1" parent="RPHfIfzpxBbw7_Gx0BDq-22">
          <mxGeometry x="38" y="71" width="38" height="38" as="geometry" />
        </mxCell>
        <mxCell id="5Q4Nb2lLaVInWph-UhoE-71" value="" style="image;aspect=fixed;perimeter=ellipsePerimeter;html=1;align=center;shadow=0;dashed=0;spacingTop=3;image=img/lib/active_directory/database_partition_3.svg;" vertex="1" parent="RPHfIfzpxBbw7_Gx0BDq-22">
          <mxGeometry x="32" y="120" width="50" height="37" as="geometry" />
        </mxCell>
        <mxCell id="RPHfIfzpxBbw7_Gx0BDq-23" value="Public subnet" style="points=[[0,0],[0.25,0],[0.5,0],[0.75,0],[1,0],[1,0.25],[1,0.5],[1,0.75],[1,1],[0.75,1],[0.5,1],[0.25,1],[0,1],[0,0.75],[0,0.5],[0,0.25]];outlineConnect=0;gradientColor=none;html=1;whiteSpace=wrap;fontSize=12;fontStyle=0;container=1;pointerEvents=0;collapsible=0;recursiveResize=0;shape=mxgraph.aws4.group;grIcon=mxgraph.aws4.group_security_group;grStroke=0;strokeColor=#7AA116;fillColor=#F2F6E8;verticalAlign=top;align=left;spacingLeft=30;fontColor=#248814;dashed=0;" parent="RPHfIfzpxBbw7_Gx0BDq-10" vertex="1">
          <mxGeometry x="150" y="40" width="130" height="160" as="geometry" />
        </mxCell>
        <mxCell id="5Q4Nb2lLaVInWph-UhoE-75" value="" style="sketch=0;outlineConnect=0;fontColor=#232F3E;gradientColor=none;fillColor=#8C4FFF;strokeColor=none;dashed=0;verticalLabelPosition=bottom;verticalAlign=top;align=center;html=1;fontSize=12;fontStyle=0;aspect=fixed;pointerEvents=1;shape=mxgraph.aws4.network_load_balancer;" vertex="1" parent="RPHfIfzpxBbw7_Gx0BDq-23">
          <mxGeometry x="33" y="32" width="50" height="50" as="geometry" />
        </mxCell>
        <mxCell id="5Q4Nb2lLaVInWph-UhoE-76" value="" style="outlineConnect=0;dashed=0;verticalLabelPosition=bottom;verticalAlign=top;align=center;html=1;shape=mxgraph.aws3.application_load_balancer;fillColor=#F58536;gradientColor=none;" vertex="1" parent="RPHfIfzpxBbw7_Gx0BDq-23">
          <mxGeometry x="32" y="90" width="57" height="52" as="geometry" />
        </mxCell>
        <mxCell id="RPHfIfzpxBbw7_Gx0BDq-25" value="Text" style="text;html=1;align=center;verticalAlign=middle;resizable=0;points=[];autosize=1;strokeColor=none;fillColor=none;" parent="RPHfIfzpxBbw7_Gx0BDq-10" vertex="1">
          <mxGeometry x="115" y="340" width="50" height="30" as="geometry" />
        </mxCell>
        <mxCell id="5Q4Nb2lLaVInWph-UhoE-11" value="Public subnet" style="points=[[0,0],[0.25,0],[0.5,0],[0.75,0],[1,0],[1,0.25],[1,0.5],[1,0.75],[1,1],[0.75,1],[0.5,1],[0.25,1],[0,1],[0,0.75],[0,0.5],[0,0.25]];outlineConnect=0;gradientColor=none;html=1;whiteSpace=wrap;fontSize=12;fontStyle=0;container=1;pointerEvents=0;collapsible=0;recursiveResize=0;shape=mxgraph.aws4.group;grIcon=mxgraph.aws4.group_security_group;grStroke=0;strokeColor=#7AA116;fillColor=#F2F6E8;verticalAlign=top;align=left;spacingLeft=30;fontColor=#248814;dashed=0;" vertex="1" parent="RPHfIfzpxBbw7_Gx0BDq-10">
          <mxGeometry x="10" y="40" width="130" height="160" as="geometry" />
        </mxCell>
        <mxCell id="5Q4Nb2lLaVInWph-UhoE-67" value="" style="sketch=0;outlineConnect=0;fontColor=#232F3E;gradientColor=none;fillColor=#8C4FFF;strokeColor=none;dashed=0;verticalLabelPosition=bottom;verticalAlign=top;align=center;html=1;fontSize=12;fontStyle=0;aspect=fixed;pointerEvents=1;shape=mxgraph.aws4.network_load_balancer;" vertex="1" parent="5Q4Nb2lLaVInWph-UhoE-11">
          <mxGeometry x="30" y="32" width="50" height="50" as="geometry" />
        </mxCell>
        <mxCell id="5Q4Nb2lLaVInWph-UhoE-68" value="" style="outlineConnect=0;dashed=0;verticalLabelPosition=bottom;verticalAlign=top;align=center;html=1;shape=mxgraph.aws3.application_load_balancer;fillColor=#F58536;gradientColor=none;" vertex="1" parent="5Q4Nb2lLaVInWph-UhoE-11">
          <mxGeometry x="30" y="90" width="57" height="52" as="geometry" />
        </mxCell>
        <mxCell id="RPHfIfzpxBbw7_Gx0BDq-24" value="" style="sketch=0;outlineConnect=0;fontColor=#232F3E;gradientColor=none;fillColor=#8C4FFF;strokeColor=none;dashed=0;verticalLabelPosition=bottom;verticalAlign=top;align=center;html=1;fontSize=12;fontStyle=0;aspect=fixed;pointerEvents=1;shape=mxgraph.aws4.internet_gateway;" parent="RPHfIfzpxBbw7_Gx0BDq-2" vertex="1">
          <mxGeometry x="350" y="-27" width="45" height="45" as="geometry" />
        </mxCell>
        <mxCell id="5Q4Nb2lLaVInWph-UhoE-15" value="" style="edgeStyle=orthogonalEdgeStyle;rounded=0;orthogonalLoop=1;jettySize=auto;html=1;exitX=1;exitY=0.75;exitDx=0;exitDy=0;exitPerimeter=0;" edge="1" parent="RPHfIfzpxBbw7_Gx0BDq-2" source="5Q4Nb2lLaVInWph-UhoE-1" target="RPHfIfzpxBbw7_Gx0BDq-10">
          <mxGeometry relative="1" as="geometry" />
        </mxCell>
        <mxCell id="5Q4Nb2lLaVInWph-UhoE-1" value="" style="sketch=0;points=[[0,0,0],[0.25,0,0],[0.5,0,0],[0.75,0,0],[1,0,0],[0,1,0],[0.25,1,0],[0.5,1,0],[0.75,1,0],[1,1,0],[0,0.25,0],[0,0.5,0],[0,0.75,0],[1,0.25,0],[1,0.5,0],[1,0.75,0]];outlineConnect=0;fontColor=#232F3E;fillColor=#8C4FFF;strokeColor=#ffffff;dashed=0;verticalLabelPosition=bottom;verticalAlign=top;align=center;html=1;fontSize=12;fontStyle=0;aspect=fixed;shape=mxgraph.aws4.resourceIcon;resIcon=mxgraph.aws4.transit_gateway;" vertex="1" parent="RPHfIfzpxBbw7_Gx0BDq-2">
          <mxGeometry x="360" y="270" width="54" height="54" as="geometry" />
        </mxCell>
        <mxCell id="5Q4Nb2lLaVInWph-UhoE-4" value="10.1.0.0/16" style="rounded=0;whiteSpace=wrap;html=1;" vertex="1" parent="RPHfIfzpxBbw7_Gx0BDq-2">
          <mxGeometry x="335" y="150" width="93.75" height="20" as="geometry" />
        </mxCell>
        <mxCell id="5Q4Nb2lLaVInWph-UhoE-7" value="Route table" style="text;html=1;align=center;verticalAlign=middle;resizable=0;points=[];autosize=1;strokeColor=none;fillColor=none;" vertex="1" parent="RPHfIfzpxBbw7_Gx0BDq-2">
          <mxGeometry x="341.88" y="180" width="80" height="30" as="geometry" />
        </mxCell>
        <mxCell id="5Q4Nb2lLaVInWph-UhoE-8" value="" style="endArrow=classic;startArrow=classic;html=1;rounded=0;entryX=0.535;entryY=0.9;entryDx=0;entryDy=0;entryPerimeter=0;" edge="1" parent="RPHfIfzpxBbw7_Gx0BDq-2" source="5Q4Nb2lLaVInWph-UhoE-1" target="5Q4Nb2lLaVInWph-UhoE-7">
          <mxGeometry width="50" height="50" relative="1" as="geometry">
            <mxPoint x="370" y="270" as="sourcePoint" />
            <mxPoint x="420" y="220" as="targetPoint" />
          </mxGeometry>
        </mxCell>
        <mxCell id="5Q4Nb2lLaVInWph-UhoE-22" value="Transit Gateway" style="text;html=1;align=center;verticalAlign=middle;resizable=0;points=[];autosize=1;strokeColor=none;fillColor=none;" vertex="1" parent="RPHfIfzpxBbw7_Gx0BDq-2">
          <mxGeometry x="330" y="340" width="110" height="30" as="geometry" />
        </mxCell>
        <mxCell id="5Q4Nb2lLaVInWph-UhoE-59" value="" style="edgeStyle=orthogonalEdgeStyle;rounded=0;orthogonalLoop=1;jettySize=auto;html=1;exitX=0;exitY=0.75;exitDx=0;exitDy=0;exitPerimeter=0;" edge="1" parent="RPHfIfzpxBbw7_Gx0BDq-2" source="5Q4Nb2lLaVInWph-UhoE-1" target="RPHfIfzpxBbw7_Gx0BDq-3">
          <mxGeometry relative="1" as="geometry">
            <mxPoint x="295.38" y="301" as="sourcePoint" />
            <mxPoint x="341.38" y="260" as="targetPoint" />
            <Array as="points">
              <mxPoint x="341" y="311" />
              <mxPoint x="341" y="270" />
            </Array>
          </mxGeometry>
        </mxCell>
        <object label="AWS Backup" id="5Q4Nb2lLaVInWph-UhoE-78">
          <mxCell parent="0" visible="0" />
        </object>
        <mxCell id="5Q4Nb2lLaVInWph-UhoE-84" value="" style="shape=image;verticalLabelPosition=bottom;labelBackgroundColor=default;verticalAlign=top;aspect=fixed;imageAspect=0;image=https://miro.medium.com/v2/resize:fit:828/format:webp/1*p47_DHBJdJthjJxqXfp7wg.png;" vertex="1" parent="5Q4Nb2lLaVInWph-UhoE-78">
          <mxGeometry x="20" y="-100" width="791.12" height="429" as="geometry" />
        </mxCell>
        <mxCell id="5Q4Nb2lLaVInWph-UhoE-85" value="EFS" parent="0" visible="0" />
        <mxCell id="5Q4Nb2lLaVInWph-UhoE-89" value="" style="shape=image;verticalLabelPosition=bottom;labelBackgroundColor=default;verticalAlign=top;aspect=fixed;imageAspect=0;image=https://miro.medium.com/v2/resize:fit:875/1*Gig18TiVgWdxXeedc778UA.png;" vertex="1" parent="5Q4Nb2lLaVInWph-UhoE-85">
          <mxGeometry x="20" y="340" width="794.41" height="385.86" as="geometry" />
        </mxCell>
        <mxCell id="5Q4Nb2lLaVInWph-UhoE-86" value="FSX" parent="0" />
        <mxCell id="5Q4Nb2lLaVInWph-UhoE-87" value="Instance-Scheduler" parent="0" />
      </root>
    </mxGraphModel>
  </diagram>
</mxfile>
